<svg width="32" height="32" viewBox="0 0 32 32" fill="none" xmlns="http://www.w3.org/2000/svg">
<path d="M15.1033 4.48332C15.4701 3.74015 16.5298 3.74015 16.8967 4.48332L19.8875 10.5424C20.0331 10.8373 20.3142 11.0418 20.6396 11.0893L27.3295 12.0671C28.1494 12.187 28.4762 13.1948 27.8826 13.773L23.0434 18.4864C22.8075 18.7161 22.6999 19.0472 22.7555 19.3718L23.8974 26.0293C24.0375 26.8463 23.18 27.4692 22.4463 27.0834L16.4654 23.9381C16.174 23.7849 15.8259 23.7849 15.5345 23.9381L9.55359 27.0834C8.81996 27.4692 7.96241 26.8463 8.10253 26.0293L9.24438 19.3718C9.30004 19.0472 9.19238 18.7161 8.9565 18.4864L4.1173 13.773C3.52371 13.1948 3.85049 12.187 4.67041 12.0671L11.3603 11.0893C11.6857 11.0418 11.9669 10.8373 12.1124 10.5424L15.1033 4.48332Z" fill="#FDD00C"/>
<path d="M17.7934 4.04067C17.0597 2.55434 14.9402 2.55433 14.2065 4.04067L11.2157 10.0998L11.3603 11.0893L11.2157 10.0998L4.52578 11.0776C2.88595 11.3173 2.23238 13.333 3.41957 14.4893L8.25877 19.2027L7.11692 25.8603C6.83669 27.4942 8.55178 28.7401 10.019 27.9685L16 24.8232L21.9809 27.9685C23.4481 28.7401 25.1632 27.4942 24.883 25.8603L23.7411 19.2027L28.5803 14.4893C29.7675 13.333 29.114 11.3173 27.4741 11.0776L20.7842 10.0998L17.7934 4.04067Z" stroke="#18191F" stroke-width="2" stroke-linecap="round" stroke-linejoin="round"/>
</svg>
