<svg width="32" height="32" viewBox="0 0 32 32" fill="none" xmlns="http://www.w3.org/2000/svg">
<rect x="1" y="1" width="30" height="30" rx="15" fill="#E9E7FC" stroke="#18191F" stroke-width="2"/>
<path d="M20.875 7.75H12.125C9.70875 7.75 7.75 9.70875 7.75 12.125V20.875C7.75 23.2912 9.70875 25.25 12.125 25.25H20.875C23.2912 25.25 25.25 23.2912 25.25 20.875V12.125C25.25 9.70875 23.2912 7.75 20.875 7.75Z" stroke="#18191F" stroke-width="2" stroke-linecap="round" stroke-linejoin="round"/>
<path d="M20 15.9485C20.108 16.6767 19.9836 17.4205 19.6445 18.0739C19.3055 18.7274 18.769 19.2573 18.1114 19.5882C17.4538 19.9192 16.7086 20.0344 15.9818 19.9175C15.255 19.8005 14.5835 19.4573 14.063 18.9368C13.5424 18.4162 13.1993 17.7448 13.0823 17.018C12.9653 16.2911 13.0805 15.5459 13.4115 14.8884C13.7425 14.2308 14.2724 13.6943 14.9258 13.3552C15.5793 13.0162 16.323 12.8918 17.0512 12.9998C17.794 13.1099 18.4817 13.4561 19.0127 13.987C19.5437 14.518 19.8898 15.2057 20 15.9485Z" stroke="#18191F" stroke-width="2" stroke-linecap="round" stroke-linejoin="round"/>
<path d="M21.3125 11.6875H21.3212" stroke="#18191F" stroke-width="2" stroke-linecap="round" stroke-linejoin="round"/>
</svg>
