<svg width="32" height="32" viewBox="0 0 32 32" fill="none" xmlns="http://www.w3.org/2000/svg">
<rect x="1" y="1" width="30" height="30" rx="15" fill="#E9E7FC" stroke="#18191F" stroke-width="2"/>
<path d="M25.7225 11.6175C25.6186 11.2022 25.4069 10.8218 25.1088 10.5145C24.8108 10.2072 24.4369 9.98404 24.025 9.8675C22.52 9.5 16.5 9.5 16.5 9.5C16.5 9.5 10.48 9.5 8.97501 9.9025C8.5631 10.019 8.18924 10.2422 7.89119 10.5495C7.59314 10.8568 7.38145 11.2372 7.27751 11.6525C7.00207 13.1799 6.86734 14.7293 6.87501 16.2813C6.86519 17.8449 6.99993 19.4061 7.27751 20.945C7.3921 21.3474 7.60853 21.7134 7.90589 22.0077C8.20325 22.302 8.57148 22.5146 8.97501 22.625C10.48 23.0275 16.5 23.0275 16.5 23.0275C16.5 23.0275 22.52 23.0275 24.025 22.625C24.4369 22.5085 24.8108 22.2853 25.1088 21.978C25.4069 21.6708 25.6186 21.2903 25.7225 20.875C25.9958 19.3591 26.1305 17.8215 26.125 16.2813C26.1348 14.7176 26.0001 13.1564 25.7225 11.6175V11.6175Z" stroke="#18191F" stroke-width="2" stroke-linecap="round" stroke-linejoin="round"/>
<path d="M14.5312 19.1424L19.5625 16.2812L14.5312 13.4199V19.1424Z" stroke="#18191F" stroke-width="2" stroke-linecap="round" stroke-linejoin="round"/>
</svg>
