<svg width="81" height="133" viewBox="0 0 81 133" fill="none" xmlns="http://www.w3.org/2000/svg">
<path d="M37.6068 46.4375L38.2814 46.365L38.6454 46.3258L39.4244 46.242L39.5109 45.2877C39.5546 44.8058 39.6075 44.3052 39.6616 43.7933C39.7866 42.6096 39.9182 41.3648 39.9571 40.1475C40.0273 37.964 40.0706 35.8 40.1136 33.6448C40.1838 30.1331 40.2535 26.6449 40.4386 23.1345L40.4387 23.1332C40.7098 17.9004 42.0061 13.6393 44.1286 10.2116C46.2549 6.77777 49.2549 4.10909 53.0191 2.15153L53.0195 2.1513C57.3794 -0.119209 61.8048 1.87435 64.5321 7.03155C66.2542 10.2929 66.9998 13.909 67.0751 17.7712C67.2273 25.7234 65.1627 32.771 61.1883 38.8718L61.8731 39.5225L61.1882 38.8719C60.1056 40.534 58.9142 42.0998 57.6817 43.6751C57.4238 44.0047 57.1637 44.3353 56.9024 44.6674C55.9236 45.9113 54.9287 47.1757 53.9791 48.4818L53.9758 48.4863C52.9967 49.8469 52.1519 51.348 51.459 52.9569C51.1219 53.732 50.9977 54.7129 51.4965 55.4552C51.9649 56.1522 52.73 56.2463 53.3918 56.0882C54.4061 55.8751 55.3951 55.4953 56.3326 54.9578L56.3474 54.9494L56.362 54.9402C57.7377 54.0804 59.1294 53.1468 60.5062 52.2232C61.5315 51.5354 62.5486 50.8531 63.5447 50.2109L63.5458 50.2102C66.5573 48.263 69.5525 46.722 72.8672 46.3451L72.87 46.3448C74.828 46.1145 76.72 47.1306 78.0889 48.8796C79.4591 50.6302 80.2299 53.0207 80.0381 55.3894L80.038 55.3913C79.8917 57.2313 79.4185 58.9995 78.6577 60.5686L78.6557 60.5728C76.8203 64.3937 74.1387 66.982 70.9027 68.9751C67.471 71.0859 63.7575 72.0045 59.8822 72.8705C59.8816 72.8706 59.8811 72.8707 59.8806 72.8708L59.9873 73.9486L37.6068 46.4375ZM37.6068 46.4375L37.4055 45.6648C37.1727 44.7717 36.9423 43.8806 36.7123 42.991C36.3243 41.4902 35.9373 39.9935 35.5418 38.4977L35.5415 38.4967C35.392 37.929 35.2453 37.3634 35.0994 36.8006C34.143 33.1121 33.2172 29.5418 31.7066 26.2629L31.7066 26.2628C30.2977 23.2042 28.8336 20.4236 26.5945 18.5025M37.6068 46.4375L26.5945 18.5025M26.5945 18.5025C24.9366 17.081 23.4172 16.5849 22.0581 16.8052C20.7066 17.0243 19.3587 17.977 18.0576 19.8345C15.8669 22.9636 14.9982 26.7187 14.8761 30.9334C14.7041 36.9711 15.7745 42.8106 17.3264 48.5852L17.3264 48.5854C18.1003 51.4665 18.9872 54.2773 19.8829 57.1159C20.3361 58.5522 20.7916 59.9956 21.2358 61.4588C21.2359 61.4594 21.2362 61.4601 21.2363 61.4607L20.5928 61.7958C20.7439 62.1416 20.8941 62.4872 21.0439 62.8318C21.2167 63.229 21.3888 63.6249 21.5609 64.0181L21.0534 64.3786C21.0555 64.3864 21.0575 64.3943 21.0596 64.4021C21.0062 64.4359 20.953 64.4682 20.9002 64.5003C20.8556 64.5274 20.8112 64.5544 20.7673 64.5819C20.7619 64.5698 20.7566 64.5576 20.7513 64.5455L20.2077 64.7983C20.1255 64.488 20.0513 64.1931 19.9794 63.907C19.8435 63.3668 19.7156 62.8581 19.5566 62.3374L19.556 62.3355C19.3819 61.7621 19.2047 61.1876 19.0255 60.6118C18.9963 60.547 18.967 60.4822 18.9377 60.4175C18.5324 59.5197 18.1333 58.617 17.7341 57.7141C16.64 55.2395 15.5456 52.7642 14.3228 50.3894M26.5945 18.5025L13.559 51.0158M14.3228 50.3894L13.5595 51.0167C13.5593 51.0164 13.5592 51.0161 13.559 51.0158M14.3228 50.3894L13.5585 51.0148C13.5587 51.0151 13.5588 51.0155 13.559 51.0158M14.3228 50.3894C13.5901 48.9734 12.4583 47.7793 11.3372 46.782C8.15196 43.9265 4.20508 45.0978 2.24348 49.3649M13.559 51.0158C12.91 49.7619 11.8786 48.6571 10.7834 47.6828L10.7809 47.6806C9.3649 46.4112 7.8351 46.0796 6.48377 46.4686C5.13461 46.857 3.87459 47.9885 3.0157 49.8569M2.24348 49.3649L3.01584 49.8565C3.01579 49.8566 3.01575 49.8567 3.0157 49.8569M2.24348 49.3649C0.863845 52.3682 0.519373 55.6871 0.647673 59.0687M2.24348 49.3649L3.0157 49.8569M3.0157 49.8569L0.647673 59.0687M17.0332 114.736C17.033 114.737 17.0327 114.737 17.0324 114.737L17.54 115.599L17.0332 114.736ZM17.0332 114.736C17.957 113.886 18.8725 113.032 19.7892 112.177C20.4428 111.568 21.097 110.958 21.7552 110.348L21.7576 110.346C21.956 110.163 22.1673 109.994 22.388 109.818C22.4718 109.751 22.5568 109.683 22.6431 109.613L23.363 109.027L23.8404 109.837C24.4671 110.901 25.0567 111.902 25.6626 112.88M17.0332 114.736L25.6626 112.88M25.6626 112.88C29.8972 119.675 35.3466 125.132 41.5703 128.812C45.2748 131.002 49.0832 131.679 52.9834 130.214C55.1819 129.361 57.1374 127.742 58.6229 125.547L58.6285 125.539L58.6343 125.531C59.6278 124.116 60.1332 122.577 60.2044 120.983C60.2762 119.378 59.9095 117.643 59.0558 115.868L59.0536 115.864C57.2171 111.999 54.3321 109.095 50.9336 107.676L50.9257 107.673L50.9179 107.669C49.9355 107.232 48.9191 106.883 47.8689 106.533C47.7615 106.497 47.6535 106.461 47.5453 106.425C46.6055 106.112 45.639 105.79 44.6893 105.405L44.6884 105.404C43.3221 104.848 41.9771 104.176 40.6633 103.519C40.2963 103.336 39.9319 103.154 39.57 102.976L39.569 102.975C39.0758 102.731 38.5757 102.264 38.468 101.477C38.3573 100.67 38.7196 99.9797 39.1237 99.5339C39.1616 99.4921 39.2016 99.4476 39.2434 99.401C39.4735 99.1449 39.7601 98.826 40.0573 98.5559C40.4073 98.2378 40.8651 97.8973 41.4004 97.7814C42.9301 97.4198 44.4886 97.3028 46.0384 97.4322L46.049 97.4331L46.0596 97.4343C47.5114 97.599 48.9584 97.852 50.3804 98.1007C50.5619 98.1324 50.7431 98.1641 50.9237 98.1955C52.5295 98.4747 54.1063 98.7343 55.6823 98.8578C58.0795 99.0447 60.4845 98.9199 62.8586 98.486C65.661 97.9732 67.9621 96.1268 69.6523 93.1753L69.6527 93.1746C70.97 90.8779 71.1009 88.3381 70.4855 86.0877C69.8629 83.811 68.4918 81.9049 66.9155 80.9782L66.9087 80.9742L66.902 80.9701C65.3094 79.9898 63.522 79.6624 61.7921 80.0174C60.6394 80.2594 59.4904 80.5328 58.3296 80.809C58.2052 80.8386 58.0807 80.8682 57.956 80.8978C56.6717 81.203 55.3736 81.5072 54.0661 81.7643L25.6626 112.88ZM0.647673 59.0687C0.917948 66.04 2.48466 72.565 5.0334 78.7731C8.14059 86.349 11.7732 93.5698 15.8895 100.353L0.647673 59.0687ZM54.0657 81.7643C52.692 82.0361 51.301 82.1342 49.9138 82.0575L49.9129 82.0574C49.4553 82.0315 48.9904 81.8124 48.6244 81.5468C48.2672 81.2877 47.8629 80.8819 47.6503 80.3368C47.0452 78.7905 47.7922 77.2335 48.6502 76.4318L54.0657 81.7643ZM19.8427 60.1003C20.0959 60.6632 20.3454 61.2295 20.5926 61.7953L19.8427 60.1003Z" fill="#F1AD81" stroke="black" stroke-width="2"/>
</svg>
