<svg width="242" height="365" viewBox="0 0 242 365" fill="none" xmlns="http://www.w3.org/2000/svg">
<path d="M58.6542 218.253L58.6521 218.242L57.4797 215.273L57.9561 215.121C57.956 215.121 57.9559 215.121 57.9558 215.12C57.7556 214.491 57.7555 213.815 57.9553 213.186L57.4788 213.035L57.9553 213.186C58.1553 212.557 58.5454 212.006 59.0715 211.609L59.1112 211.58L59.1441 211.542C59.6952 210.923 60.4221 210.488 61.227 210.295C62.0319 210.102 62.8765 210.161 63.6473 210.464L63.6473 210.464L63.6577 210.468C64.6065 210.816 65.6053 211.009 66.6153 211.037C67.8941 211.132 69.0952 211.691 69.9938 212.61C70.8941 213.53 71.4289 214.748 71.4976 216.036C71.5468 217.452 71.3179 218.865 70.8241 220.193C70.4026 221.035 69.7698 221.752 68.9879 222.274C68.2052 222.797 67.3002 223.106 66.3624 223.17C64.9284 223.132 63.5225 222.761 62.2544 222.087C60.9848 221.412 59.888 220.452 59.0501 219.281C58.8577 218.965 58.7236 218.617 58.6542 218.253Z" fill="#FDD00C" stroke="black"/>
<path d="M88.6347 44.0853L88.6331 44.075C88.4606 43.0058 87.9704 42.0131 87.2261 41.2259C86.4902 40.4476 85.5395 39.9057 84.4951 39.6688C83.9874 39.6307 83.5067 39.4232 83.1306 39.079L83.4681 38.7101L83.1306 39.079C82.7547 38.735 82.5056 38.275 82.4228 37.7731C82.3026 37.4137 82.0814 37.1878 81.7816 37.0069C81.5167 36.847 81.2219 36.7379 80.881 36.6118C80.7874 36.5771 80.6903 36.5412 80.5895 36.5026M88.6347 44.0853L82.9108 37.6574C82.6197 36.7204 81.8146 36.4231 81.0308 36.1338C80.9425 36.1012 80.8545 36.0687 80.7676 36.0354C76.3267 34.3481 70.5181 39.5808 70.4682 42.8352M88.6347 44.0853L88.6368 44.0956C88.8634 45.2037 88.8693 46.3455 88.6543 47.456C88.4393 48.5664 88.0076 49.6237 87.3837 50.5675C86.7599 51.5112 85.9561 52.323 85.0184 52.9563C84.0806 53.5897 83.0272 54.0323 81.9183 54.2589C80.8094 54.4854 79.6668 54.4914 78.5556 54.2766C77.4443 54.0618 76.3864 53.6304 75.4421 53.007C74.4978 52.3836 73.6857 51.5804 73.052 50.6433C72.4218 49.7112 71.9804 48.6647 71.7527 47.563C71.6246 46.5782 71.4095 45.5844 71.2079 44.6532C71.1522 44.3958 71.0975 44.1432 71.046 43.8969M88.6347 44.0853L70.5497 43.9663M80.5895 36.5026C80.5893 36.5025 80.589 36.5024 80.5888 36.5023L80.7676 36.0355L80.59 36.5028C80.5898 36.5027 80.5897 36.5027 80.5895 36.5026ZM80.5895 36.5026C78.6021 35.7478 76.2241 36.5234 74.2705 37.9827C73.305 38.704 72.4757 39.5704 71.8887 40.4418C71.302 41.3129 70.985 42.1469 70.9686 42.8221M70.9686 42.8221L70.9669 42.7993L70.4682 42.8352M70.9686 42.8221C70.9684 42.8291 70.9683 42.836 70.9682 42.8429L70.4682 42.8352M70.9686 42.8221L71.046 43.8969M70.4682 42.8352L70.5497 43.9663M70.5497 43.9663L71.0392 43.8642C71.0415 43.8751 71.0437 43.886 71.046 43.8969M70.5497 43.9663L71.0484 43.9303L71.046 43.8969" fill="#FDD00C" stroke="black"/>
<path d="M25.4789 123.406L25.4538 123.434L25.4332 123.465C23.4889 126.413 21.0036 127.935 18.4536 128.231C15.8985 128.528 13.1997 127.603 10.8177 125.503L10.8075 125.494L10.7968 125.485C9.96412 124.828 9.40889 123.883 9.24048 122.837C9.17331 121.957 8.88042 121.094 8.61193 120.303C8.53046 120.063 8.45124 119.83 8.38126 119.605C8.06651 118.592 7.89407 117.651 8.22361 116.637L8.22372 116.637L8.22685 116.627C8.61449 115.339 9.27478 114.151 10.1629 113.141C11.051 112.131 12.146 111.324 13.3738 110.775L13.3858 110.769L13.3974 110.764C14.2088 110.348 15.1263 110.186 16.0311 110.298C16.9358 110.41 17.7861 110.79 18.4718 111.39L18.4781 111.396L18.4845 111.401C19.6055 112.318 20.8638 113.054 22.2132 113.581C23.0231 113.922 23.7665 114.402 24.4093 115.001L24.4244 115.015L24.4405 115.028C24.9394 115.422 25.3428 115.923 25.6206 116.494C25.893 117.054 26.0377 117.667 26.0444 118.29C25.8861 119.362 25.892 120.453 26.0619 121.524C26.1065 121.86 26.0778 122.202 25.9779 122.526C25.8773 122.852 25.7071 123.152 25.4789 123.406Z" fill="#A9DAD7" stroke="black"/>
<path d="M235.479 44.4059L235.454 44.4338L235.433 44.4651C233.489 47.4133 231.004 48.9353 228.454 49.2314C225.899 49.5281 223.2 48.6032 220.818 46.5028L220.808 46.4937L220.797 46.4852C219.964 45.8283 219.409 44.8831 219.241 43.8369C219.173 42.957 218.88 42.0942 218.612 41.3033C218.531 41.0634 218.451 40.83 218.381 40.6048C218.067 39.592 217.894 38.6512 218.224 37.637L218.224 37.637L218.227 37.6266C218.615 36.3394 219.275 35.1505 220.163 34.1408C221.051 33.1311 222.146 32.3241 223.374 31.7748L223.386 31.7695L223.397 31.7635C224.209 31.3483 225.126 31.186 226.031 31.2978C226.936 31.4095 227.786 31.7901 228.472 32.3902L228.478 32.3957L228.485 32.4009C229.606 33.3182 230.864 34.0537 232.213 34.5806C233.023 34.9215 233.767 35.4025 234.409 36.0013L234.424 36.0154L234.441 36.0281C234.939 36.4215 235.343 36.9225 235.621 37.4937C235.893 38.0539 236.038 38.6674 236.044 39.2899C235.886 40.3624 235.892 41.4528 236.062 42.5236C236.107 42.8598 236.078 43.2018 235.978 43.526C235.877 43.852 235.707 44.1523 235.479 44.4059Z" fill="#A9DAD7" stroke="black"/>
<path d="M149.479 41.4059L149.454 41.4337L149.433 41.465C147.489 44.4133 145.003 45.9352 142.453 46.2313C139.898 46.528 137.2 45.6031 134.818 43.5027L134.807 43.4937L134.797 43.4852C133.964 42.8282 133.409 41.883 133.24 40.8369C133.173 39.9569 132.88 39.0942 132.612 38.3033C132.53 38.0633 132.451 37.83 132.381 37.6047C132.066 36.5919 131.894 35.6512 132.223 34.6369L132.224 34.637L132.227 34.6266C132.614 33.3393 133.275 32.1505 134.163 31.1407C135.051 30.131 136.146 29.3241 137.374 28.7747L137.386 28.7694L137.397 28.7634C138.209 28.3482 139.126 28.186 140.031 28.2977C140.936 28.4094 141.786 28.79 142.472 29.3901L142.478 29.3956L142.484 29.4009C143.605 30.3181 144.864 31.0536 146.213 31.5805C147.023 31.9215 147.766 32.4024 148.409 33.0013L148.424 33.0153L148.44 33.028C148.939 33.4214 149.343 33.9225 149.62 34.4937C149.893 35.0539 150.038 35.6673 150.044 36.2898C149.886 37.3623 149.892 38.4527 150.062 39.5235C150.106 39.8598 150.078 40.2017 149.978 40.5259C149.877 40.8519 149.707 41.1522 149.479 41.4059Z" fill="#FF9E9E" stroke="black"/>
<path d="M151.396 157.422L151.396 157.458L151.402 157.494C151.598 158.761 151.334 159.726 150.801 160.535C150.255 161.363 149.408 162.054 148.39 162.721L148.378 162.73L148.366 162.739C147.447 163.422 146.352 163.829 145.209 163.912C144.073 163.994 142.937 163.751 141.934 163.212C140.348 162.187 138.668 161.314 136.918 160.605L136.898 160.597L136.877 160.591C136.713 160.54 136.56 160.456 136.429 160.345C136.297 160.233 136.19 160.096 136.113 159.942C136.037 159.787 135.992 159.619 135.982 159.447C135.973 159.28 135.997 159.112 136.052 158.954C136.383 158.186 136.408 157.32 136.121 156.534L136.113 156.511L136.103 156.49C135.681 155.607 135.771 154.928 136.078 154.327C136.403 153.69 136.972 153.131 137.586 152.53L137.605 152.511C139.354 150.9 141.565 149.879 143.926 149.593L143.938 149.591L143.95 149.589C144.981 149.414 146.038 149.477 147.042 149.772C148.045 150.067 148.968 150.587 149.739 151.292L149.75 151.301L149.761 151.311C150.333 151.776 150.791 152.366 151.099 153.036C151.403 153.697 151.553 154.419 151.538 155.147C151.437 155.901 151.389 156.661 151.396 157.422Z" fill="#FDD00C" stroke="black"/>
<path d="M118.208 94.0836L118.208 94.1201L118.214 94.1562C118.342 94.9812 118.17 95.5996 117.827 96.1182C117.471 96.6557 116.914 97.1133 116.223 97.5649L116.21 97.573L116.198 97.5819C115.594 98.0307 114.873 98.298 114.121 98.3522C113.376 98.4059 112.63 98.2478 111.972 97.8966C110.88 97.1935 109.724 96.5948 108.52 96.1085L108.5 96.1005L108.479 96.0942C108.387 96.0658 108.302 96.019 108.228 95.9568C108.155 95.8945 108.095 95.8182 108.052 95.7323C108.009 95.6465 107.984 95.5529 107.979 95.4574C107.974 95.366 107.986 95.2746 108.016 95.188C108.256 94.6278 108.274 93.997 108.065 93.424L108.057 93.4014L108.046 93.3797C107.78 92.8244 107.839 92.414 108.028 92.0458C108.238 91.6349 108.611 91.2695 109.041 90.8495C110.213 89.7737 111.694 89.0917 113.276 88.9001L113.288 88.8986L113.299 88.8967C113.981 88.7811 114.681 88.8221 115.344 89.0165C116.008 89.211 116.618 89.5536 117.128 90.0183L117.138 90.028L117.15 90.0371C117.522 90.3391 117.82 90.7222 118.02 91.1568C118.217 91.5835 118.314 92.0489 118.306 92.5182C118.236 93.037 118.203 93.5602 118.208 94.0836Z" fill="#FDD00C" stroke="black"/>
<path d="M126.208 312.084L126.208 312.12L126.214 312.156C126.342 312.981 126.17 313.6 125.827 314.118C125.471 314.656 124.914 315.113 124.223 315.565L124.211 315.573L124.199 315.582C123.594 316.031 122.873 316.298 122.122 316.352C121.376 316.406 120.631 316.248 119.972 315.897C118.881 315.194 117.725 314.595 116.52 314.108L116.5 314.1L116.48 314.094C116.387 314.066 116.302 314.019 116.228 313.957C116.155 313.895 116.095 313.818 116.052 313.732C116.009 313.647 115.984 313.553 115.979 313.457C115.974 313.366 115.987 313.275 116.016 313.188C116.257 312.628 116.274 311.997 116.065 311.424L116.057 311.401L116.046 311.38C115.781 310.824 115.84 310.414 116.028 310.046C116.238 309.635 116.611 309.27 117.041 308.849C118.213 307.774 119.694 307.092 121.276 306.9L121.288 306.899L121.3 306.897C121.982 306.781 122.681 306.822 123.344 307.017C124.008 307.211 124.618 307.554 125.128 308.018L125.139 308.028L125.15 308.037C125.522 308.339 125.82 308.722 126.02 309.157C126.217 309.584 126.315 310.049 126.306 310.518C126.236 311.037 126.204 311.56 126.208 312.084Z" fill="#FDD00C" stroke="black"/>
<path d="M184.208 10.0836L184.208 10.1201L184.214 10.1562C184.342 10.9812 184.17 11.5996 183.827 12.1182C183.472 12.6557 182.914 13.1133 182.223 13.5649L182.211 13.573L182.199 13.5819C181.594 14.0307 180.874 14.298 180.122 14.3522C179.376 14.4059 178.631 14.2478 177.972 13.8966C176.881 13.1935 175.725 12.5948 174.52 12.1085L174.5 12.1005L174.48 12.0942C174.387 12.0658 174.302 12.019 174.228 11.9568C174.155 11.8945 174.095 11.8182 174.052 11.7323C174.009 11.6465 173.985 11.5529 173.979 11.4574C173.974 11.366 173.987 11.2746 174.016 11.188C174.257 10.6278 174.274 9.997 174.065 9.42403L174.057 9.40144L174.046 9.37974C173.781 8.82444 173.84 8.41405 174.028 8.04578C174.238 7.63486 174.611 7.26954 175.041 6.8495C176.213 5.77373 177.694 5.09169 179.276 4.90007L179.288 4.89865L179.3 4.89667C179.982 4.78111 180.681 4.82213 181.344 5.01655C182.008 5.21097 182.618 5.55363 183.128 6.01834L183.139 6.02805L183.15 6.03713C183.522 6.33911 183.82 6.72219 184.02 7.1568C184.217 7.58354 184.315 8.04887 184.306 8.51816C184.236 9.03704 184.204 9.56016 184.208 10.0836Z" fill="#FDD00C" stroke="black"/>
<path d="M82.2081 137.084L82.2084 137.12L82.214 137.156C82.3423 137.981 82.1702 138.6 81.8271 139.118C81.4714 139.656 80.9137 140.113 80.223 140.565L80.2105 140.573L80.1985 140.582C79.5941 141.031 78.8734 141.298 78.1215 141.352C77.3759 141.406 76.6307 141.248 75.9722 140.897C74.8805 140.194 73.7246 139.595 72.5199 139.108L72.5 139.1L72.4796 139.094C72.3872 139.066 72.3017 139.019 72.2282 138.957C72.1548 138.895 72.0949 138.818 72.0521 138.732C72.0092 138.647 71.9844 138.553 71.979 138.457C71.9739 138.366 71.9865 138.275 72.0164 138.188C72.2567 137.628 72.2743 136.997 72.065 136.424L72.0567 136.401L72.0463 136.38C71.7805 135.824 71.8396 135.414 72.0279 135.046C72.2381 134.635 72.6113 134.27 73.0408 133.849C74.2127 132.774 75.6943 132.092 77.2762 131.9L77.288 131.899L77.2996 131.897C77.9816 131.781 78.6809 131.822 79.3444 132.017C80.0078 132.211 80.6177 132.554 81.1279 133.018L81.1385 133.028L81.1497 133.037C81.5222 133.339 81.8201 133.722 82.0204 134.157C82.217 134.584 82.3145 135.049 82.3059 135.518C82.2363 136.037 82.2036 136.56 82.2081 137.084Z" fill="#FF9E9E" stroke="black"/>
<path d="M213.208 293.084L213.208 293.12L213.214 293.156C213.342 293.981 213.17 294.6 212.827 295.118C212.471 295.656 211.914 296.113 211.223 296.565L211.211 296.573L211.199 296.582C210.594 297.031 209.873 297.298 209.122 297.352C208.376 297.406 207.631 297.248 206.972 296.897C205.881 296.194 204.725 295.595 203.52 295.108L203.5 295.1L203.48 295.094C203.387 295.066 203.302 295.019 203.228 294.957C203.155 294.895 203.095 294.818 203.052 294.732C203.009 294.647 202.984 294.553 202.979 294.457C202.974 294.366 202.987 294.275 203.016 294.188C203.257 293.628 203.274 292.997 203.065 292.424L203.057 292.401L203.046 292.38C202.781 291.824 202.84 291.414 203.028 291.046C203.238 290.635 203.611 290.27 204.041 289.849C205.213 288.774 206.694 288.092 208.276 287.9L208.288 287.899L208.3 287.897C208.982 287.781 209.681 287.822 210.344 288.017C211.008 288.211 211.618 288.554 212.128 289.018L212.139 289.028L212.15 289.037C212.522 289.339 212.82 289.722 213.02 290.157C213.217 290.584 213.315 291.049 213.306 291.518C213.236 292.037 213.204 292.56 213.208 293.084Z" fill="#FF9E9E" stroke="black"/>
<path d="M238.208 90.0836L238.208 90.1201L238.214 90.1562C238.342 90.9812 238.17 91.5996 237.827 92.1182C237.471 92.6557 236.914 93.1133 236.223 93.5649L236.21 93.573L236.198 93.5819C235.594 94.0307 234.873 94.298 234.121 94.3522C233.376 94.4059 232.63 94.2478 231.972 93.8966C230.88 93.1935 229.724 92.5948 228.52 92.1085L228.5 92.1005L228.479 92.0942C228.387 92.0658 228.302 92.019 228.228 91.9568C228.155 91.8945 228.095 91.8182 228.052 91.7323C228.009 91.6465 227.984 91.5529 227.979 91.4574C227.974 91.366 227.986 91.2746 228.016 91.188C228.256 90.6278 228.274 89.997 228.065 89.424L228.057 89.4014L228.046 89.3797C227.78 88.8244 227.839 88.414 228.028 88.0458C228.238 87.6349 228.611 87.2695 229.041 86.8495C230.213 85.7737 231.694 85.0917 233.276 84.9001L233.288 84.8986L233.299 84.8967C233.981 84.7811 234.681 84.8221 235.344 85.0165C236.008 85.211 236.618 85.5536 237.128 86.0183L237.138 86.028L237.15 86.0371C237.522 86.3391 237.82 86.7222 238.02 87.1568C238.217 87.5835 238.314 88.0489 238.306 88.5182C238.236 89.037 238.203 89.5602 238.208 90.0836Z" fill="#FF9E9E" stroke="black"/>
<path d="M120.198 220.375L120.198 220.375L120.199 220.361C120.279 219.586 120.303 218.807 120.27 218.028L120.27 218.028L120.269 218.019C120.211 217.055 120.439 216.096 120.924 215.261C121.409 214.426 122.129 213.752 122.996 213.325L123.033 213.307L123.066 213.283C124.145 212.509 125.428 212.07 126.755 212.022C128.082 211.973 129.393 212.317 130.525 213.009C131.794 213.799 132.792 214.957 133.387 216.328C133.982 217.698 134.146 219.217 133.857 220.683C133.656 221.643 133.338 222.575 133.023 223.498C132.937 223.747 132.853 223.996 132.77 224.244C132.548 224.799 132.16 225.273 131.66 225.601L131.636 225.616L131.615 225.634C129.988 226.981 127.911 227.6 125.914 227.25C123.933 226.903 121.969 225.592 120.572 222.956C120.212 222.147 120.082 221.254 120.198 220.375Z" fill="#FF9E9E" stroke="black"/>
<path d="M214.299 234.127L214.3 234.163L214.305 234.199C214.435 235.031 214.261 235.654 213.915 236.177C213.556 236.719 212.993 237.181 212.297 237.635L212.284 237.644L212.272 237.652C211.662 238.105 210.935 238.374 210.177 238.429C209.424 238.483 208.673 238.324 208.008 237.97C206.908 237.262 205.744 236.659 204.53 236.17L204.51 236.162L204.489 236.155C204.396 236.127 204.309 236.079 204.235 236.016C204.16 235.953 204.1 235.876 204.056 235.789C204.013 235.702 203.988 235.608 203.982 235.511C203.977 235.418 203.99 235.326 204.02 235.238C204.262 234.675 204.28 234.04 204.069 233.464L204.061 233.441L204.051 233.42C203.782 232.86 203.842 232.445 204.032 232.074C204.244 231.659 204.621 231.291 205.054 230.868C206.235 229.784 207.729 229.096 209.325 228.903L209.336 228.902L209.348 228.9C210.036 228.783 210.742 228.825 211.411 229.021C212.08 229.216 212.695 229.562 213.21 230.03L213.22 230.04L213.232 230.049C213.607 230.353 213.908 230.74 214.11 231.178C214.308 231.608 214.407 232.077 214.398 232.55C214.328 233.073 214.295 233.599 214.299 234.127Z" fill="#A9DAD7" stroke="black"/>
<path d="M196.299 326.127L196.3 326.163L196.305 326.199C196.435 327.031 196.261 327.654 195.915 328.177C195.556 328.719 194.993 329.181 194.297 329.635L194.285 329.644L194.273 329.652C193.663 330.105 192.936 330.374 192.177 330.429C191.425 330.483 190.673 330.324 190.009 329.97C188.909 329.262 187.744 328.659 186.53 328.17L186.51 328.162L186.49 328.155C186.396 328.127 186.309 328.079 186.235 328.016C186.16 327.953 186.1 327.876 186.056 327.789C186.013 327.702 185.988 327.608 185.983 327.511C185.977 327.418 185.99 327.326 186.02 327.238C186.262 326.675 186.28 326.04 186.069 325.464L186.061 325.441L186.051 325.42C185.782 324.86 185.842 324.445 186.032 324.074C186.244 323.659 186.621 323.291 187.054 322.868C188.236 321.784 189.73 321.096 191.325 320.903L191.337 320.902L191.348 320.9C192.036 320.783 192.742 320.825 193.411 321.021C194.08 321.216 194.695 321.562 195.21 322.03L195.221 322.04L195.232 322.049C195.608 322.353 195.908 322.74 196.11 323.178C196.309 323.608 196.407 324.077 196.398 324.55C196.328 325.073 196.295 325.599 196.299 326.127Z" fill="#A9DAD7" stroke="black"/>
<path d="M182.995 89.8072L182.996 89.8437L183.001 89.8797C183.197 91.1351 182.934 92.0921 182.404 92.8942C181.861 93.7152 181.018 94.4012 180.006 95.0633L179.993 95.0714L179.981 95.0803C179.067 95.7589 177.978 96.163 176.842 96.2449C175.711 96.3264 174.582 96.0858 173.584 95.5516C172.006 94.5344 170.335 93.6684 168.593 92.9651L168.574 92.9571L168.553 92.9508C168.39 92.9005 168.238 92.8175 168.108 92.7071C167.977 92.5967 167.871 92.4611 167.795 92.3086L167.347 92.5317L167.795 92.3086C167.719 92.1561 167.675 91.9899 167.665 91.82C167.656 91.6546 167.679 91.4891 167.734 91.3329C168.064 90.5693 168.089 89.7088 167.803 88.9274L167.795 88.9048L167.785 88.8831C167.366 88.0082 167.456 87.3366 167.761 86.741C168.084 86.1093 168.65 85.5554 169.261 84.9578L169.28 84.9393C171.02 83.3409 173.219 82.3276 175.568 82.0431L175.58 82.0417L175.592 82.0397C176.617 81.8658 177.669 81.9276 178.667 82.2201C179.665 82.5126 180.583 83.0282 181.35 83.7274L181.361 83.7372L181.372 83.7462C181.941 84.2074 182.396 84.7925 182.702 85.4564C183.004 86.1123 183.153 86.828 183.137 87.5494C183.036 88.2977 182.989 89.0522 182.995 89.8072Z" fill="#FDD00C" stroke="black"/>
<path d="M231.677 173.933L231.678 173.969L231.683 174.005C231.88 175.274 231.616 176.241 231.08 177.052C230.531 177.882 229.681 178.575 228.659 179.243L228.647 179.251L228.635 179.26C227.713 179.946 226.613 180.354 225.466 180.437C224.325 180.519 223.184 180.276 222.177 179.736C220.586 178.709 218.9 177.835 217.143 177.125L217.123 177.117L217.103 177.11C216.937 177.059 216.784 176.975 216.652 176.863C216.52 176.751 216.412 176.614 216.335 176.459L215.888 176.682L216.335 176.459C216.258 176.305 216.213 176.136 216.204 175.964C216.194 175.796 216.218 175.629 216.274 175.47C216.606 174.7 216.631 173.833 216.343 173.045L216.335 173.023L216.325 173.001C215.902 172.116 215.993 171.436 216.3 170.834C216.627 170.195 217.198 169.636 217.814 169.033L217.834 169.013C219.589 167.399 221.809 166.376 224.18 166.089L224.191 166.087L224.203 166.085C225.238 165.91 226.3 165.972 227.307 166.268C228.315 166.563 229.241 167.084 230.016 167.791L230.026 167.8L230.037 167.809C230.612 168.276 231.071 168.867 231.38 169.538C231.685 170.201 231.836 170.924 231.82 171.654C231.719 172.409 231.671 173.171 231.677 173.933Z" fill="#FDD00C" stroke="black"/>
<path d="M173.678 271.933L173.678 271.969L173.683 272.005C173.881 273.274 173.616 274.241 173.08 275.052C172.532 275.882 171.681 276.575 170.66 277.243L170.647 277.251L170.635 277.26C169.713 277.946 168.613 278.354 167.466 278.437C166.325 278.519 165.185 278.276 164.178 277.736C162.586 276.709 160.9 275.835 159.144 275.125L159.124 275.117L159.103 275.11C158.938 275.059 158.784 274.975 158.652 274.863C158.52 274.751 158.412 274.614 158.335 274.459L157.888 274.682L158.335 274.459C158.258 274.305 158.214 274.136 158.204 273.964C158.195 273.796 158.218 273.629 158.274 273.47C158.606 272.7 158.631 271.833 158.344 271.045L158.335 271.023L158.325 271.001C157.902 270.116 157.993 269.436 158.301 268.834C158.627 268.195 159.198 267.636 159.814 267.033L159.834 267.013C161.59 265.399 163.809 264.376 166.18 264.089L166.192 264.087L166.203 264.085C167.239 263.91 168.3 263.972 169.308 264.268C170.315 264.563 171.241 265.084 172.016 265.791L172.027 265.8L172.038 265.809C172.612 266.276 173.071 266.867 173.38 267.538C173.686 268.201 173.836 268.924 173.821 269.654C173.719 270.409 173.671 271.171 173.678 271.933Z" fill="#FDD00C" stroke="black"/>
<path d="M101.521 354.6L101.496 354.628L101.476 354.66C99.5295 357.646 97.041 359.185 94.4886 359.483C91.9311 359.781 89.2274 358.843 86.8387 356.712L86.8285 356.703L86.8178 356.695C85.9824 356.028 85.4238 355.068 85.2539 354.005C85.186 353.115 84.8926 352.242 84.623 351.441C84.5411 351.197 84.4614 350.96 84.3909 350.732C84.0746 349.705 83.9002 348.748 84.2306 347.718L84.2307 347.718L84.2337 347.708C84.6214 346.403 85.2825 345.198 86.1717 344.175C87.0608 343.153 88.1572 342.336 89.3863 341.781L89.3983 341.775L89.41 341.769C90.2221 341.35 91.1401 341.186 92.0455 341.3C92.951 341.414 93.803 341.8 94.491 342.409L94.4972 342.414L94.5036 342.42C95.6271 343.35 96.8881 344.096 98.2405 344.631C99.0519 344.977 99.7972 345.464 100.442 346.072L100.457 346.086L100.473 346.099C100.973 346.498 101.379 347.007 101.658 347.587C101.932 348.156 102.078 348.78 102.085 349.413C101.928 350.498 101.934 351.602 102.105 352.686C102.151 353.029 102.122 353.377 102.022 353.707C101.921 354.038 101.75 354.343 101.521 354.6Z" fill="#A9DAD7" stroke="black"/>
<path d="M207.521 139.6L207.496 139.628L207.476 139.66C205.529 142.646 203.041 144.185 200.488 144.483C197.931 144.781 195.227 143.843 192.838 141.712L192.828 141.703L192.818 141.695C191.982 141.028 191.424 140.068 191.254 139.005C191.186 138.115 190.892 137.242 190.623 136.441C190.541 136.197 190.461 135.96 190.391 135.732C190.074 134.705 189.9 133.748 190.23 132.718L190.23 132.718L190.233 132.708C190.621 131.403 191.282 130.198 192.171 129.175C193.061 128.153 194.157 127.336 195.386 126.781L195.398 126.775L195.41 126.769C196.222 126.35 197.14 126.186 198.045 126.3C198.951 126.414 199.803 126.8 200.491 127.409L200.497 127.414L200.503 127.42C201.627 128.35 202.888 129.096 204.24 129.631C205.052 129.977 205.797 130.464 206.442 131.072L206.457 131.086L206.473 131.099C206.973 131.498 207.378 132.007 207.658 132.587C207.932 133.156 208.078 133.78 208.085 134.413C207.927 135.498 207.934 136.602 208.105 137.686C208.15 138.029 208.122 138.377 208.021 138.707C207.92 139.038 207.75 139.343 207.521 139.6Z" fill="#A9DAD7" stroke="black"/>
</svg>
