<svg width="366" height="144" viewBox="0 0 366 144" fill="none" xmlns="http://www.w3.org/2000/svg">
<path d="M66.6721 79.1579L67.8675 81.0393L65.6674 80.6811C47.4577 77.7168 25.9573 77.5233 10.5745 89.9127C4.06088 95.3456 1.34479 100.389 1.03128 104.909C0.717834 109.428 2.78796 113.684 6.41815 117.582C13.7097 125.413 26.914 131.376 37.3411 134.414C66.9044 142.734 97.8813 142.768 128.522 142.802C133.828 142.808 139.124 142.814 144.4 142.862L144.41 142.863C153.492 143.039 162.437 142.943 171.403 142.846L172.169 142.838C181.385 142.739 190.626 142.648 200.035 142.863C221.288 143.16 246.108 142.961 267.56 142.4L267.561 142.4C324.967 140.952 354.076 121.471 363.254 108.163C365.785 104.354 365.524 99.1059 362.731 93.4585C359.947 87.8283 354.72 81.9873 347.716 77.2401C333.723 67.7556 312.815 62.752 290.661 72.3879L289.025 73.0995L289.272 71.3324C291.434 55.8655 287.997 40.7556 272.792 32.2512L272.792 32.2509C258.931 24.4862 247.392 24.7278 237.21 29.4695C226.941 34.2519 217.95 43.6579 209.373 54.4573L207.711 56.551L207.591 53.8801C206.789 35.936 195.081 19.9882 176.925 18.9685L176.92 18.9681C168.084 18.4228 158.633 21.6387 152.056 27.384C145.505 33.1056 141.859 41.2698 144.376 50.7384L142.489 51.3841C142.389 51.1481 142.289 50.9102 142.188 50.6704C138.025 40.8016 132.551 27.8258 124.78 17.5837C116.83 7.10434 106.632 -0.316067 93.131 1.19617L93.1302 1.19625C74.6494 3.25269 63.923 16.1273 59.8513 31.8762C55.7682 47.6691 58.4378 66.1975 66.6721 79.1579Z" fill="#A9DAD7" stroke="black" stroke-width="2"/>
</svg>
