<svg width="222" height="176" viewBox="0 0 222 176" fill="none" xmlns="http://www.w3.org/2000/svg">
<path d="M153.751 173.68L153.749 173.68C131.481 173.857 109.249 173.664 87.0542 173.099L87.0533 173.099C86.7317 173.091 86.1846 173.08 85.4376 173.065C79.3404 172.939 59.9276 172.537 41.182 171.485C30.6567 170.895 20.3698 170.101 12.7782 169.04C8.97388 168.508 5.8947 167.915 3.81141 167.263C2.76041 166.934 2.03523 166.612 1.60484 166.318C1.38305 166.166 1.29974 166.067 1.27123 166.022L7.69192 116.159L7.69528 116.132L7.69727 116.106C7.84652 114.13 8.71644 112.278 10.1429 110.9C11.5616 109.529 13.4326 108.721 15.4047 108.629L67.1692 109.975L67.2012 109.975L67.2333 109.974C69.664 109.882 71.979 108.913 73.75 107.248C75.5145 105.589 76.6203 103.351 76.8641 100.943C78.6547 89.1131 80.0657 77.2537 81.0971 65.3646L81.0992 65.3395L81.1001 65.3143C81.1715 63.3392 81.9525 61.4553 83.3008 60.0079C84.642 58.5679 86.4558 57.6553 88.4138 57.4345C104.658 56.7017 120.891 56.407 137.112 56.552L137.136 56.5522L137.161 56.5512C139.504 56.4554 141.738 55.5377 143.469 53.958C145.193 52.3848 146.308 50.2564 146.619 47.9453L153.423 11.8929L153.427 11.8715L153.43 11.8501C153.685 10.0844 154.514 8.4506 155.789 7.20081C157.058 5.9578 158.699 5.1633 160.463 4.93707L212.827 1.53316L212.828 1.53312C217.173 1.24715 220.77 5.53953 219.942 10.86L219.941 10.862C216.304 34.5591 209.639 90.5211 205.651 124.009C204.088 137.129 202.937 146.8 202.539 149.729L202.535 149.754L202.533 149.78C202.048 155.57 200.078 161.139 196.814 165.949C192.484 171.685 186.216 173.642 178.701 174.135C174.936 174.382 170.904 174.259 166.693 174.076C166.023 174.047 165.349 174.017 164.671 173.986C161.102 173.825 157.426 173.658 153.751 173.68ZM1.25802 165.995C1.25869 165.995 1.26108 165.999 1.26316 166.009C1.25839 166 1.25735 165.995 1.25802 165.995Z" fill="#FFC0A7" stroke="black" stroke-width="2"/>
</svg>
